# File created by Blade
# Date/Time:  Tue Apr 07 21:12:38 2015
# Frame Rate: 120.000 fps
#------------------------------------------------------
:FULLY-SPECIFIED
:DEGREES
1762
root 24.730967 17.467979 8.336068 703.511602 -50.736230 -669.630941
Spine 15.710208 -4.441605 -13.236254
Head -9.671983 -23.514080 7.772780
LeftShoulder 174.538464 139.520799 196.859868
LeftArm 65.114080 -9.116818 -64.874198
LeftForeArm 9.710560 -0.000000 43.100966
LeftHand 13.688412 -0.000000 2.964854
LeftHandThumb1 -26.253704 0.000000 33.147579
RightShoulder 6.344960 7.659166 -23.011752
RightArm 29.701694 -4.096407 69.392642
RightForeArm -9.261746 -0.000000 33.957512
RightHand 10.073946 0.000000 -3.353353
RightHandThumb1 -24.326973 -0.000000 -32.862282
LeftUpLeg -73.664464 -0.648624 8.036229
LeftLeg 122.179343 -0.000000 -0.000000
LeftFoot -29.450140 3.222990 -16.591220
LeftToeBase -23.277606 -0.000000 0.000000
RightUpLeg -42.399822 -16.632772 -5.478161
RightLeg 108.104899 -0.000000 -0.000000
RightFoot 46.265764 3.814745 17.396104
RightToeBase 28.330700 -0.000000 -0.000000
1763
root 24.659170 17.486844 8.356124 702.544935 -50.827722 -669.726545
Spine 16.224998 -3.919596 -13.793716
Head -8.895358 -23.694001 8.114320
LeftShoulder 172.391473 136.211350 194.974823
LeftArm 68.253688 -11.323803 -64.165433
LeftForeArm 8.604484 -0.000000 41.170426
LeftHand 14.175922 0.000000 1.784933
LeftHandThumb1 -26.253704 0.000000 33.147579
RightShoulder 6.018864 7.345476 -22.669610
RightArm 29.598023 -4.502920 69.832397
RightForeArm -9.419881 -0.000000 33.893784
RightHand 9.928349 -0.000000 -3.138386
RightHandThumb1 -24.326973 -0.000000 -32.862282
LeftUpLeg -75.536107 -0.591310 6.872042
LeftLeg 122.508326 -0.000000 -0.000000
LeftFoot -29.947190 2.342101 -16.743919
LeftToeBase -23.399676 -0.000000 0.000000
RightUpLeg -41.088945 -16.501331 -5.657851
RightLeg 107.768654 -0.000000 -0.000000
RightFoot 46.585341 4.111398 17.357421
RightToeBase 27.406196 -0.000000 -0.000000
1764
root 24.576066 17.508186 8.380461 701.533263 -50.958532 -669.835106
Spine 16.759604 -3.455440 -14.340010
Head -8.018026 -23.747238 8.402449
LeftShoulder 171.210397 134.449801 194.132483
LeftArm 69.220539 -12.978702 -64.090346
LeftForeArm 8.411742 0.000000 39.864115
LeftHand 13.909805 -0.000000 3.054276
LeftHandThumb1 -26.253704 0.000000 33.147579
RightShoulder 5.869027 6.981082 -22.238070
RightArm 29.585003 -4.812588 70.105720
RightForeArm -9.370773 -0.000000 33.775202
RightHand 9.787037 0.000000 -2.856327
RightHandThumb1 -24.326973 -0.000000 -32.862282
LeftUpLeg -77.255810 -0.600880 5.688165
LeftLeg 122.700832 -0.000000 -0.000000
LeftFoot -30.431025 0.844976 -17.646328
LeftToeBase -22.531061 -0.000000 0.000000
RightUpLeg -39.687753 -16.342150 -5.841787
RightLeg 107.370594 -0.000000 -0.000000
RightFoot 46.793094 4.167240 17.609607
RightToeBase 27.637222 -0.000000 -0.000000
1765
root 24.486458 17.527250 8.411233 700.463302 -51.200144 -669.935727
Spine 17.333199 -2.901189 -14.824708
Head -7.218459 -23.775942 8.709830
LeftShoulder 170.933991 134.489895 194.346782
LeftArm 68.138806 -13.982113 -64.461252
LeftForeArm 8.117732 -0.000000 39.011917
LeftHand 13.738577 0.000000 3.323860
LeftHandThumb1 -26.253704 0.000000 33.147579
RightShoulder 5.686575 6.691984 -21.800946
RightArm 29.598814 -5.130408 70.315582
RightForeArm -9.285329 0.000000 33.576981
RightHand 9.578568 0.000000 -2.530482
RightHandThumb1 -24.326973 -0.000000 -32.862282
LeftUpLeg -78.838420 -0.615183 4.358689
LeftLeg 122.778339 -0.000000 -0.000000
LeftFoot -30.628904 0.066671 -17.640145
LeftToeBase -23.879697 -0.000000 0.000000
RightUpLeg -38.235408 -16.120719 -5.985387
RightLeg 106.963096 -0.000000 -0.000000
RightFoot 47.030060 4.432982 17.590772
RightToeBase 27.215616 -0.000000 -0.000000
1766
root 24.399938 17.545059 8.440803 699.533975 -51.479562 -670.126055
Spine 17.819984 -2.447812 -15.184721
Head -6.382392 -23.686125 8.831503
LeftShoulder 170.561526 134.308449 194.444372
LeftArm 67.305288 -15.075953 -64.791730
LeftForeArm 7.342492 -0.000000 38.189508
LeftHand 13.598736 -0.000000 3.278269
LeftHandThumb1 -26.253704 0.000000 33.147579
RightShoulder 5.587119 6.413892 -21.461291
RightArm 29.672270 -5.317258 70.607144
RightForeArm -9.183414 -0.000000 33.270902
RightHand 9.364605 0.000000 -2.283840
RightHandThumb1 -24.326973 -0.000000 -32.862282
LeftUpLeg -80.429040 -0.662262 3.029646
LeftLeg 122.727082 -0.000000 -0.000000
LeftFoot -30.773467 -1.011597 -17.815074
LeftToeBase -24.469352 -0.000000 0.000000
RightUpLeg -36.863372 -15.895281 -6.035969
RightLeg 106.538864 -0.000000 -0.000000
RightFoot 47.255330 4.679996 17.707658
RightToeBase 26.900362 -0.000000 -0.000000
1767
root 24.310185 17.556935 8.470969 698.694058 -51.881483 -670.386427
Spine 18.239121 -1.945517 -15.405073
Head -5.512314 -23.578244 8.889513
LeftShoulder 170.168101 134.094721 194.558074
LeftArm 66.663434 -16.220641 -65.390287
LeftForeArm 6.799532 -0.000000 37.270995
LeftHand 13.706994 -0.000000 2.828399
LeftHandThumb1 -26.253704 0.000000 33.147579
RightShoulder 5.463544 6.238703 -21.186447
RightArm 29.679496 -5.523849 70.914051
RightForeArm -8.873348 -0.000000 32.910667
RightHand 9.287943 -0.000000 -2.142488
RightHandThumb1 -24.326973 -0.000000 -32.862282
LeftUpLeg -81.970970 -0.689681 1.747027
LeftLeg 122.599380 -0.000000 -0.000000
LeftFoot -30.744581 -2.299724 -18.054930
LeftToeBase -24.815217 -0.000000 0.000000
RightUpLeg -35.535605 -15.594949 -5.975210
RightLeg 106.099961 -0.000000 -0.000000
RightFoot 47.458246 4.801262 18.020756
RightToeBase 26.930918 -0.000000 -0.000000
1768
root 24.219964 17.567269 8.498945 697.981157 -52.362085 -670.711305
Spine 18.556022 -1.436640 -15.515429
Head -4.619552 -23.422195 8.903138
LeftShoulder 169.813209 133.850460 194.661298
LeftArm 66.072346 -17.399445 -65.926828
LeftForeArm 6.442449 -0.000000 36.409285
LeftHand 13.552719 -0.000000 2.554218
LeftHandThumb1 -26.253704 0.000000 33.147579
RightShoulder 5.349448 6.093793 -20.947559
RightArm 29.688348 -5.682577 71.237602
RightForeArm -8.480144 -0.000000 32.432551
RightHand 9.475383 -0.000000 -2.066695
RightHandThumb1 -24.326973 -0.000000 -32.862282
LeftUpLeg -83.496615 -0.707679 0.470292
LeftLeg 122.366637 -0.000000 -0.000000
LeftFoot -30.528723 -3.786181 -18.317588
LeftToeBase -25.272938 -0.000000 0.000000
RightUpLeg -34.310809 -15.268230 -5.794832
RightLeg 105.638173 -0.000000 -0.000000
RightFoot 47.640825 4.765232 18.311200
RightToeBase 26.768303 -0.000000 -0.000000
1769
root 24.137013 17.574295 8.535429 697.440373 -52.937076 -670.974528
Spine 18.569823 -1.023773 -15.542660
Head -3.634088 -23.138525 8.677980
LeftShoulder 169.533832 133.858013 194.801269
LeftArm 65.194581 -18.525291 -66.543269
LeftForeArm 5.979670 -0.000000 35.542502
LeftHand 13.975613 -0.000000 2.293513
LeftHandThumb1 -26.253704 0.000000 33.147579
RightShoulder 5.319824 5.945684 -20.810933
RightArm 29.702455 -5.784607 71.632052
RightForeArm -8.069880 -0.000000 32.036074
RightHand 9.220676 -0.000000 -2.139147
RightHandThumb1 -24.326973 -0.000000 -32.862282
LeftUpLeg -85.168951 -0.841999 -0.791394
LeftLeg 122.050845 -0.000000 -0.000000
LeftFoot -30.121909 -5.398212 -18.965313
LeftToeBase -25.760102 -0.000000 0.000000
RightUpLeg -33.356980 -14.929423 -5.549967
RightLeg 105.207980 -0.000000 -0.000000
RightFoot 47.820120 4.936301 18.280289
RightToeBase 26.108788 -0.000000 -0.000000
1770
root 24.055259 17.581710 8.560078 697.028885 -53.494640 -671.417396
Spine 18.682478 -0.662770 -15.460216
Head -2.787407 -22.815476 8.521757
LeftShoulder 169.215204 133.740840 194.919732
LeftArm 64.558385 -19.690662 -67.208692
LeftForeArm 5.434795 -0.000000 34.732391
LeftHand 14.046972 -0.000000 2.784842
LeftHandThumb1 -26.253704 0.000000 33.147579
RightShoulder 5.253402 6.098587 -20.728277
RightArm 29.483806 -5.914244 72.100992
RightForeArm -7.734752 -0.000000 31.572817
RightHand 9.216054 -0.000000 -2.311997
RightHandThumb1 -24.326973 -0.000000 -32.862282
LeftUpLeg -86.696238 -0.985772 -2.105121
LeftLeg 121.574839 -0.000000 -0.000000
LeftFoot -29.798621 -6.887023 -19.434167
LeftToeBase -25.339669 -0.000000 0.000000
RightUpLeg -32.363554 -14.637356 -5.188760
RightLeg 104.719493 -0.000000 -0.000000
RightFoot 47.905159 4.942078 18.420676
RightToeBase 25.996109 -0.000000 -0.000000
1771
root 23.953864 17.579224 8.592126 696.497262 -54.192939 -671.882710
Spine 18.884872 -0.210146 -15.291812
Head -1.958900 -22.407310 8.353793
LeftShoulder 168.800124 133.531249 194.899851
LeftArm 64.066196 -20.911314 -67.860681
LeftForeArm 4.783821 -0.000000 34.022349
LeftHand 13.620780 -0.000000 2.805354
LeftHandThumb1 -26.253704 0.000000 33.147579
RightShoulder 5.206483 6.343307 -20.647702
RightArm 29.208949 -6.103976 72.520543
RightForeArm -7.310268 0.000000 31.126990
RightHand 9.229538 -0.000000 -2.640173
RightHandThumb1 -24.326973 -0.000000 -32.862282
LeftUpLeg -88.004064 -1.093681 -3.287477
LeftLeg 121.118023 -0.000000 -0.000000
LeftFoot -29.183986 -8.615941 -20.035048
LeftToeBase -25.613333 -0.000000 0.000000
RightUpLeg -31.198369 -14.237843 -4.771892
RightLeg 104.197784 -0.000000 -0.000000
RightFoot 47.933590 4.933353 18.531518
RightToeBase 25.907119 -0.000000 -0.000000
1772
root 23.846134 17.579950 8.630126 695.936060 -54.863762 -672.273236
Spine 19.126847 0.217704 -15.201068
Head -1.387469 -21.939052 8.425286
LeftShoulder 171.953756 138.063046 198.641917
LeftArm 56.561294 -21.243033 -68.923617
LeftForeArm 4.370894 -0.000000 35.545951
LeftHand 13.383921 -0.000000 2.880439
LeftHandThumb1 -26.253704 0.000000 33.147579
RightShoulder 5.026951 6.463823 -20.482360
RightArm 29.172082 -6.241612 72.840761
RightForeArm -6.908990 -0.000000 30.663642
RightHand 9.290323 -0.000000 -2.699093
RightHandThumb1 -24.326973 -0.000000 -32.862282
LeftUpLeg -89.164601 -1.285488 -4.533648
LeftLeg 120.543730 -0.000000 -0.000000
LeftFoot -28.564052 -10.441611 -20.933309
LeftToeBase -25.497676 -0.000000 0.000000
RightUpLeg -30.009508 -13.880420 -4.420432
RightLeg 103.628080 -0.000000 -0.000000
RightFoot 47.969944 5.032469 18.592813
RightToeBase 25.550895 -0.000000 -0.000000
1773
root 23.738554 17.584941 8.663999 695.059304 -55.435326 -672.507703
Spine 19.628099 0.537807 -15.231702
Head -0.858865 -21.374851 8.423639
LeftShoulder 171.391048 137.877453 198.500937
LeftArm 56.210764 -22.658846 -69.448208
LeftForeArm 3.287272 -0.000000 34.983379
LeftHand 13.334208 -0.000000 3.294858
LeftHandThumb1 -26.253704 0.000000 33.147579
RightShoulder 4.971291 6.699087 -20.390538
RightArm 29.141202 -6.212429 73.287007
RightForeArm -6.506137 -0.000000 30.173730
RightHand 9.469617 -0.000000 -2.658242
RightHandThumb1 -24.326973 -0.000000 -32.862282
LeftUpLeg -89.979424 -1.552631 -5.961395
LeftLeg 119.834075 -0.000000 -0.000000
LeftFoot -28.020586 -11.904860 -21.510297
LeftToeBase -25.489885 -0.000000 0.000000
RightUpLeg -28.622499 -13.605935 -4.240767
RightLeg 103.045278 -0.000000 -0.000000
RightFoot 47.882118 4.829344 18.833643
RightToeBase 26.116295 -0.000000 -0.000000
1774
root 23.631170 17.584711 8.699410 694.257334 -56.014594 -672.796849
Spine 20.118523 0.841606 -15.179850
Head -0.396987 -20.850002 8.400924
LeftShoulder 170.655747 137.726978 198.166007
LeftArm 56.069111 -24.013173 -69.864130
LeftForeArm 2.176761 0.000000 34.393569
LeftHand 13.495553 -0.000000 3.786342
LeftHandThumb1 -26.253704 0.000000 33.147579
RightShoulder 4.877560 6.812601 -20.322459
RightArm 29.223737 -6.389635 73.450947
RightForeArm -6.001184 -0.000000 29.862397
RightHand 9.411101 -0.000000 -2.706614
RightHandThumb1 -24.326973 -0.000000 -32.862282
LeftUpLeg -90.702140 -1.884684 -7.313766
LeftLeg 119.095262 -0.000000 -0.000000
LeftFoot -27.486804 -13.559060 -22.412186
LeftToeBase -25.011735 -0.000000 0.000000
RightUpLeg -27.275972 -13.380156 -4.001593
RightLeg 102.482787 -0.000000 -0.000000
RightFoot 47.910730 4.726126 18.830361
RightToeBase 26.099686 -0.000000 -0.000000
